<?xml version="1.0" encoding="utf-8"?>
<!-- Generator: Adobe Illustrator 19.2.1, SVG Export Plug-In . SVG Version: 6.00 Build 0)  -->
<svg version="1.1" id="Capa_1" xmlns="http://www.w3.org/2000/svg" xmlns:xlink="http://www.w3.org/1999/xlink" x="0px" y="0px"
	 viewBox="0 0 330 60" style="enable-background:new 0 0 330 60;" xml:space="preserve">
<style type="text/css">
	.st0{fill:#E33D7A;}
</style>
<g>
	<polygon class="st0" points="203,20.3 203,17.3 184,17.3 184,46.3 203,46.3 203,43.3 188,43.3 188,33.3 201,33.3 201,30.3 
		188,30.3 188,20.3 	"/>
	<path d="M243.9,46.3h3.6l3.9-9h11.3l3.7,9h3.6l-12.6-30.5L243.9,46.3z M252.9,34.3l4.4-10.2l4.1,10.2H252.9z"/>
	<path d="M237.5,30.9c1.7-1.4,2.6-3.4,2.6-6c-0.1-3.7-1.6-6.2-4.4-7.5c-1.5-0.7-2.9-1-4.2-1H220v30h12.9c1.1,0,2.2-0.5,3.4-0.9
		c1.3-0.5,2.4-1.4,3.4-2.5c1-1.2,1.5-2.8,1.6-4.9C241.2,34.6,239.9,32.2,237.5,30.9z M235.9,27.8c-0.7,0.8-1.3,1.3-1.9,1.5l-0.3,0.4
		c-0.6,0.2-1.2,0.7-1.5,0.7H223v-11h8.5c0.8,0,1.9,0.4,2.7,0.9c1.6,0.8,2.4,2.3,2.5,4.6C236.7,26.1,236.4,27.2,235.9,27.8z
		 M223,33.3h9.7c1,0,2,0,3,0.5c1.5,0.8,2.3,2.1,2.3,4.3c0,2-0.8,3.3-2.3,3.9v0.3c-1.1,0.5-2,1-2.9,1H223V33.3z"/>
	<polygon points="265,19.3 274,19.3 274,46.3 278,46.3 278,19.3 286,19.3 286,16.3 265,16.3 	"/>
	<polygon points="310,19.3 310,16.3 291,16.3 291,46.3 310,46.3 310,43.3 294,43.3 294,32.3 307,32.3 307,29.3 294,29.3 294,19.3 	
		"/>
	<path d="M42.5,46.3h3.6l3.9-9h11.3l3.7,9h3.6L56,15.9L42.5,46.3z M51.5,34.3l4.4-10.2L60,34.3H51.5z"/>
	<path d="M36.1,30.9c1.7-1.4,2.6-3.4,2.6-6c-0.1-3.7-1.6-6.2-4.4-7.5c-1.5-0.7-2.9-1-4.2-1H19v30h12.5c1.1,0,2.2-0.5,3.4-0.9
		c1.3-0.5,2.4-1.4,3.4-2.5c1-1.2,1.5-2.8,1.6-4.9C39.8,34.6,38.5,32.2,36.1,30.9z M34.5,27.8c-0.7,0.8-1.3,1.3-1.9,1.5l-0.3,0.4
		c-0.6,0.2-1.2,0.7-1.5,0.7H22v-11h8.1c0.8,0,1.9,0.4,2.7,0.9c1.6,0.8,2.4,2.3,2.5,4.6C35.3,26.1,35,27.2,34.5,27.8z M22,33.3h9.3
		c1,0,2,0,3,0.5c1.5,0.8,2.3,2.1,2.3,4.3c0,2-0.8,3.3-2.3,3.9v0.3c-1.1,0.5-2,1-2.9,1H22V33.3z"/>
	<polygon points="64,19.3 73,19.3 73,46.3 76,46.3 76,19.3 85,19.3 85,16.3 64,16.3 	"/>
	<polygon points="108,19.3 108,16.3 89,16.3 89,46.3 108,46.3 108,43.3 93,43.3 93,32.3 106,32.3 106,29.3 93,29.3 93,19.3 	"/>
	<path class="st0" d="M149.5,42.3l-0.3,0.2c-0.6,0.8-1.3,1.3-2.1,1.6c-1.2,0.5-2.5,0.2-4.1-0.8c1.4-0.5,2.6-1.2,3.8-2
		c1.7-1.3,3.1-3,4.2-5.1c1-2,1.5-4.3,1.5-6.7c0-2.6-0.6-5.1-1.9-7.3c-1.2-2.2-2.9-3.9-5-5.2s-4.4-2-6.9-2s-4.9,0.7-6.9,2
		c-2.1,1.3-3.7,3.1-5,5.2c-1.2,2.2-1.9,4.6-1.9,7.3c0,2,0.4,3.9,1.1,5.7c0.7,1.7,1.7,3.3,3,4.6c0.9,0.9,1.8,1.7,2.9,2.3
		c-0.2,0.2-0.5,0.4-0.7,0.6c-0.6,0.6-1,1.1-1.3,1.5c-0.4,0.7-0.4,0.8-0.5,0.9l-0.5,0.7l2.9,1.5V46c0-0.1,0.4-0.2,0.5-0.3
		c0.2-0.3,0.6-0.6,0.9-0.9c0.3-0.3,0.9-0.6,1.4-0.8c1.7-0.5,3.7,0,6.1,1.6c1.6,1.1,3.3,1.6,4.8,1.6s2.9-0.5,4.1-1.5
		c0.9-0.7,1.7-1.4,2.4-2.6l0.8-1.2h-3.3V42.3z M138.7,40.8c-1.9,0-3.7-0.5-5.3-1.5s-2.9-2.4-3.9-4.1c-1-1.7-1.4-3.6-1.4-5.6
		c0-2.1,0.5-4,1.4-5.7c1-1.7,2.3-3.1,3.9-4.1c1.6-1,3.4-1.5,5.3-1.5c1.9,0,3.7,0.5,5.3,1.5s2.9,2.4,3.9,4.1s1.4,3.6,1.4,5.7
		s-0.5,4-1.4,5.6c-1,1.7-2.3,3.1-3.9,4.1C142.4,40.3,140.6,40.8,138.7,40.8z"/>
	<g>
		<path class="st0" d="M161.2,33.5C161.2,33.5,161.1,33.5,161.2,33.5L161.2,33.5v0.3V33.5z"/>
		<g>
			<path class="st0" d="M176.6,25.6v0.6v5c-1.2,0.9-2.7,1.2-4,0.9c0.2-0.5,0.4-1,0.5-1.6c0.4-1.9,0.5-3.8,0.4-5.7
				c0-0.3-0.1-0.5-0.4-0.7c-0.4-0.2-0.8-0.6-1.2-0.6s-0.9,0.4-1.3,0.7c-1.6,1.1-3.1,2.2-4.3,3.8c-0.2,0.3-0.4,0.5-0.5,0.8
				c-1.5-0.1-3.1,0.2-4.5,0.9l0,0v-4.2H157v0.6v9.4c0,2.7,1.1,5.2,3.4,7.6c0.3,0.3,0.7,0.6,1,0.9v2.6h15.1v-3.1
				c0.3-0.3,0.6-0.6,0.9-0.9c1.9-2.1,2.9-4.4,2.9-7.1v-10h-3.7V25.6z M172.5,26.9c0,0.2,0,0.4,0,0.6c-0.1,1-0.2,2-0.5,3
				c-0.1,0.4-0.2,0.8-0.4,1.2c-0.3-0.2-0.6-0.4-0.9-0.6c0-0.1,0.1-0.1,0.1-0.2C171.4,29.7,171.9,28.3,172.5,26.9z M171,26.6
				c0.2-0.3,0.4-0.5,0.6-0.8h0.1c-0.3,0.8-0.6,1.6-0.9,2.4c-0.3,0.8-0.6,1.5-0.9,2.2c-0.3-0.3-0.7-0.5-1.1-0.7
				C169.4,28.6,170.2,27.6,171,26.6z M170.3,25.7c-0.9,1.2-1.8,2.4-2.5,3.6c-0.3-0.1-0.7-0.2-1-0.3
				C167.7,27.8,169.3,26.3,170.3,25.7z M164.6,31.9c0.3,0,0.7,0,1,0s0.6,0.1,0.8,0.2c0.3,0.1,0.6,0.2,0.9,0.4
				c0.3,0.2,0.6,0.4,0.9,0.6l0,0l0,0l0.1,0.1l0,0c0.2,0.2,0.5,0.4,0.7,0.6c0.2,0.2,0.4,0.3,0.7,0.4c0.3,0.2,0.7,0.3,1,0.5
				c0.4,0.1,0.7,0.2,1.1,0.3c0.5,0.1,1.1,0.2,1.6,0.2c1,0,2.1-0.2,3-0.6l0,0v1c0,1.5-0.6,3-1.9,4.3c-1.7,1.7-3.6,2.6-5.8,2.6
				s-4.1-0.7-5.7-2.2c-1.4-1.4-2.1-3-2.1-4.8v-1.8v-0.3l0,0l0,0l0,0C162.1,32.5,163.4,32,164.6,31.9z"/>
			<path class="st0" d="M174.9,23.3c0.9-1.7,1.9-3.5,2.8-5.2c0.4-0.8,0.3-1.7-0.5-2.2c-0.9-0.6-2-0.4-2.5,0.6c-1,1.8-2,3.7-3,5.6
				c0,0.1-0.1,0.1-0.1,0.2c1,0.5,2,1.1,3,1.6C174.8,23.6,174.8,23.5,174.9,23.3z"/>
		</g>
	</g>
</g>
</svg>
